<svg xmlns="http://www.w3.org/2000/svg" xmlns:xlink="http://www.w3.org/1999/xlink" width="800" zoomAndPan="magnify" viewBox="0 0 600 74.999997" height="100" preserveAspectRatio="xMidYMid meet" version="1.0"><defs><g/><clipPath id="41b2d6191a"><path d="M 0 10.0625 L 126.75 10.0625 L 126.75 64.8125 L 0 64.8125 Z M 0 10.0625 " clip-rule="nonzero"/></clipPath><clipPath id="21440fff8e"><rect x="0" width="459" y="0" height="73"/></clipPath></defs><g clip-path="url(#41b2d6191a)"><path fill="#193681" d="M 50.265625 16.421875 L 50.265625 27.945312 L 0.0507812 31.761719 L 64.324219 31.761719 L 50.265625 34.046875 L 50.265625 39.230469 L 11.027344 42.210938 L 75.300781 42.210938 L 50.265625 45.5 L 50.265625 54.011719 L 13.507812 56.808594 L 77.777344 56.808594 L 50.265625 59.71875 C 50.265625 62.597656 52.597656 64.929688 55.476562 64.929688 L 121.238281 64.929688 C 124.117188 64.929688 126.453125 62.597656 126.453125 59.71875 L 126.453125 16.421875 L 88.359375 42.824219 Z M 126.453125 10.0625 L 50.265625 10.0625 L 88.359375 36.464844 Z M 126.453125 10.0625 " fill-opacity="1" fill-rule="nonzero"/></g><g transform="matrix(1, 0, 0, 1, 134, 1)"><g clip-path="url(#21440fff8e)"><g fill="#193681" fill-opacity="1"><g transform="translate(1.60945, 56.684482)"><g><path d="M 15.203125 -39.09375 C 19.609375 -39.09375 23.097656 -38.046875 25.671875 -35.953125 C 28.253906 -33.867188 29.546875 -30.351562 29.546875 -25.40625 C 29.546875 -22.707031 29.039062 -20.234375 28.03125 -17.984375 C 27.03125 -15.734375 25.46875 -13.921875 23.34375 -12.546875 C 21.21875 -11.171875 18.578125 -10.484375 15.421875 -10.484375 L 11.9375 -10.484375 L 11.9375 0 L 4.703125 0 L 4.703125 -39.09375 Z M 14.921875 -16.375 C 17.367188 -16.375 19.210938 -17.109375 20.453125 -18.578125 C 21.691406 -20.046875 22.3125 -22.191406 22.3125 -25.015625 C 22.3125 -26.972656 22.066406 -28.5625 21.578125 -29.78125 C 21.097656 -31.007812 20.300781 -31.921875 19.1875 -32.515625 C 18.082031 -33.117188 16.601562 -33.421875 14.75 -33.421875 L 11.9375 -33.421875 L 11.9375 -16.375 Z M 14.921875 -16.375 "/></g></g></g><g fill="#193681" fill-opacity="1"><g transform="translate(33.957455, 56.684482)"><g><path d="M 21.875 0 L 11.828125 -14.125 L 11.828125 0 L 4.703125 0 L 4.703125 -39.09375 L 15.59375 -39.09375 C 24.863281 -39.09375 29.5 -34.941406 29.5 -26.640625 C 29.5 -24.785156 29.195312 -22.960938 28.59375 -21.171875 C 28 -19.390625 27.023438 -17.804688 25.671875 -16.421875 C 24.316406 -15.046875 22.582031 -14.097656 20.46875 -13.578125 L 30.5625 0 Z M 14.796875 -17.671875 C 16.390625 -17.671875 17.75 -18.046875 18.875 -18.796875 C 20.007812 -19.554688 20.863281 -20.566406 21.4375 -21.828125 C 22.019531 -23.085938 22.3125 -24.46875 22.3125 -25.96875 C 22.3125 -28.539062 21.71875 -30.4375 20.53125 -31.65625 C 19.351562 -32.875 17.390625 -33.484375 14.640625 -33.484375 L 11.828125 -33.484375 L 11.828125 -17.671875 Z M 14.796875 -17.671875 "/></g></g></g><g fill="#193681" fill-opacity="1"><g transform="translate(67.987299, 56.684482)"><g><path d="M 18.5 0.671875 C 15.03125 0.671875 12.066406 -0.15625 9.609375 -1.8125 C 7.160156 -3.46875 5.3125 -5.8125 4.0625 -8.84375 C 2.8125 -11.882812 2.1875 -15.460938 2.1875 -19.578125 C 2.1875 -23.648438 2.804688 -27.203125 4.046875 -30.234375 C 5.296875 -33.273438 7.128906 -35.625 9.546875 -37.28125 C 11.960938 -38.9375 14.894531 -39.765625 18.34375 -39.765625 C 21.90625 -39.765625 24.910156 -38.925781 27.359375 -37.25 C 29.816406 -35.570312 31.65625 -33.21875 32.875 -30.1875 C 34.101562 -27.164062 34.71875 -23.628906 34.71875 -19.578125 C 34.71875 -15.460938 34.082031 -11.882812 32.8125 -8.84375 C 31.550781 -5.8125 29.707031 -3.46875 27.28125 -1.8125 C 24.851562 -0.15625 21.925781 0.671875 18.5 0.671875 Z M 18.5 -5.328125 C 20.164062 -5.328125 21.65625 -5.859375 22.96875 -6.921875 C 24.289062 -7.992188 25.332031 -9.613281 26.09375 -11.78125 C 26.863281 -13.945312 27.25 -16.597656 27.25 -19.734375 C 27.25 -24.359375 26.46875 -27.878906 24.90625 -30.296875 C 23.351562 -32.710938 21.164062 -33.921875 18.34375 -33.921875 C 15.59375 -33.921875 13.460938 -32.710938 11.953125 -30.296875 C 10.453125 -27.878906 9.703125 -24.34375 9.703125 -19.6875 C 9.703125 -16.507812 10.0625 -13.847656 10.78125 -11.703125 C 11.5 -9.566406 12.515625 -7.96875 13.828125 -6.90625 C 15.148438 -5.851562 16.707031 -5.328125 18.5 -5.328125 Z M 18.5 -5.328125 "/></g></g></g><g fill="#193681" fill-opacity="1"><g transform="translate(106.558116, 56.684482)"><g><path d="M 37.40625 -39.765625 L 37.40625 0 L 30.453125 0 L 30.453125 -16.765625 L 30.703125 -23.390625 L 28.71875 -20.359375 L 21.03125 -11.328125 L 13.34375 -20.359375 L 11.359375 -23.390625 L 11.671875 -16.765625 L 11.671875 0 L 4.703125 0 L 4.703125 -39.765625 L 5.265625 -39.765625 L 21.078125 -21.109375 L 36.78125 -39.765625 Z M 37.40625 -39.765625 "/></g></g></g><g fill="#193681" fill-opacity="1"><g transform="translate(150.342645, 56.684482)"><g><path d="M 22.9375 -5.65625 L 8.96875 -5.65625 L 6.890625 0 L -0.953125 0 L 15.59375 -39.765625 L 16.15625 -39.765625 L 32.75 0 L 25.125 0 Z M 20.859375 -11.109375 L 16.765625 -21.765625 L 15.8125 -24.90625 L 14.921875 -21.765625 L 10.984375 -11.109375 Z M 20.859375 -11.109375 "/></g></g></g><g fill="#193681" fill-opacity="1"><g transform="translate(183.811886, 56.684482)"><g><path d="M 4.546875 -39.09375 L 11.71875 -39.09375 L 11.71875 0 L 4.546875 0 Z M 4.546875 -39.09375 "/></g></g></g><g fill="#193681" fill-opacity="1"><g transform="translate(201.752126, 56.684482)"><g><path d="M 23.5 -6.171875 L 23.5 0 L 4.703125 0 L 4.703125 -39.09375 L 11.828125 -39.09375 L 11.828125 -6.171875 Z M 23.5 -6.171875 "/></g></g></g><g fill="#00d509" fill-opacity="1"><g transform="translate(228.39261, 56.684482)"><g><path d="M 17.9375 0.671875 C 15.125 0.671875 12.507812 -0.0859375 10.09375 -1.609375 C 7.6875 -3.128906 5.75 -5.453125 4.28125 -8.578125 C 2.8125 -11.703125 2.078125 -15.535156 2.078125 -20.078125 C 2.078125 -24.203125 2.804688 -27.742188 4.265625 -30.703125 C 5.722656 -33.671875 7.695312 -35.921875 10.1875 -37.453125 C 12.6875 -38.992188 15.476562 -39.765625 18.5625 -39.765625 C 20.445312 -39.765625 22.039062 -39.582031 23.34375 -39.21875 C 24.65625 -38.851562 25.6875 -38.429688 26.4375 -37.953125 C 27.1875 -37.472656 27.90625 -36.914062 28.59375 -36.28125 L 25.453125 -30.390625 C 24.804688 -31.097656 24.226562 -31.644531 23.71875 -32.03125 C 23.21875 -32.414062 22.578125 -32.722656 21.796875 -32.953125 C 21.023438 -33.191406 20.039062 -33.3125 18.84375 -33.3125 C 16.96875 -33.3125 15.359375 -32.765625 14.015625 -31.671875 C 12.671875 -30.578125 11.644531 -29.0625 10.9375 -27.125 C 10.226562 -25.1875 9.875 -22.96875 9.875 -20.46875 C 9.875 -17.332031 10.238281 -14.648438 10.96875 -12.421875 C 11.707031 -10.191406 12.707031 -8.515625 13.96875 -7.390625 C 15.238281 -6.273438 16.65625 -5.71875 18.21875 -5.71875 C 19.882812 -5.71875 21.359375 -5.953125 22.640625 -6.421875 C 23.921875 -6.890625 24.898438 -7.476562 25.578125 -8.1875 L 28.65625 -2.640625 C 27.519531 -1.703125 26.140625 -0.914062 24.515625 -0.28125 C 22.898438 0.351562 20.707031 0.671875 17.9375 0.671875 Z M 17.9375 0.671875 "/></g></g></g><g fill="#00d509" fill-opacity="1"><g transform="translate(259.619392, 56.684482)"><g><path d="M 32.125 -39.09375 L 32.125 0 L 24.84375 0 L 24.84375 -16.59375 L 11.9375 -16.59375 L 11.9375 0 L 4.703125 0 L 4.703125 -39.09375 L 11.9375 -39.09375 L 11.9375 -22.765625 L 24.84375 -22.765625 L 24.84375 -39.09375 Z M 32.125 -39.09375 "/></g></g></g><g fill="#00d509" fill-opacity="1"><g transform="translate(298.134154, 56.684482)"><g><path d="M 26.078125 -6.34375 L 26.078125 0 L 4.546875 0 L 4.546875 -39.09375 L 24.953125 -39.09375 L 24.953125 -32.96875 L 11.546875 -32.96875 L 11.546875 -23.828125 L 22.203125 -23.828125 L 22.203125 -17.890625 L 11.546875 -17.890625 L 11.546875 -6.34375 Z M 26.078125 -6.34375 "/></g></g></g><g fill="#00d509" fill-opacity="1"><g transform="translate(328.183646, 56.684482)"><g><path d="M 17.9375 0.671875 C 15.125 0.671875 12.507812 -0.0859375 10.09375 -1.609375 C 7.6875 -3.128906 5.75 -5.453125 4.28125 -8.578125 C 2.8125 -11.703125 2.078125 -15.535156 2.078125 -20.078125 C 2.078125 -24.203125 2.804688 -27.742188 4.265625 -30.703125 C 5.722656 -33.671875 7.695312 -35.921875 10.1875 -37.453125 C 12.6875 -38.992188 15.476562 -39.765625 18.5625 -39.765625 C 20.445312 -39.765625 22.039062 -39.582031 23.34375 -39.21875 C 24.65625 -38.851562 25.6875 -38.429688 26.4375 -37.953125 C 27.1875 -37.472656 27.90625 -36.914062 28.59375 -36.28125 L 25.453125 -30.390625 C 24.804688 -31.097656 24.226562 -31.644531 23.71875 -32.03125 C 23.21875 -32.414062 22.578125 -32.722656 21.796875 -32.953125 C 21.023438 -33.191406 20.039062 -33.3125 18.84375 -33.3125 C 16.96875 -33.3125 15.359375 -32.765625 14.015625 -31.671875 C 12.671875 -30.578125 11.644531 -29.0625 10.9375 -27.125 C 10.226562 -25.1875 9.875 -22.96875 9.875 -20.46875 C 9.875 -17.332031 10.238281 -14.648438 10.96875 -12.421875 C 11.707031 -10.191406 12.707031 -8.515625 13.96875 -7.390625 C 15.238281 -6.273438 16.65625 -5.71875 18.21875 -5.71875 C 19.882812 -5.71875 21.359375 -5.953125 22.640625 -6.421875 C 23.921875 -6.890625 24.898438 -7.476562 25.578125 -8.1875 L 28.65625 -2.640625 C 27.519531 -1.703125 26.140625 -0.914062 24.515625 -0.28125 C 22.898438 0.351562 20.707031 0.671875 17.9375 0.671875 Z M 17.9375 0.671875 "/></g></g></g><g fill="#00d509" fill-opacity="1"><g transform="translate(359.410429, 56.684482)"><g><path d="M 24.453125 0 L 11.828125 -18.765625 L 11.828125 0 L 4.703125 0 L 4.703125 -39.09375 L 11.828125 -39.09375 L 11.828125 -19.625 L 24.28125 -39.09375 L 32.53125 -39.09375 L 19.203125 -19.6875 L 33.421875 0 Z M 24.453125 0 "/></g></g></g><g fill="#00d509" fill-opacity="1"><g transform="translate(394.50544, 56.684482)"><g><path d="M 26.078125 -6.34375 L 26.078125 0 L 4.546875 0 L 4.546875 -39.09375 L 24.953125 -39.09375 L 24.953125 -32.96875 L 11.546875 -32.96875 L 11.546875 -23.828125 L 22.203125 -23.828125 L 22.203125 -17.890625 L 11.546875 -17.890625 L 11.546875 -6.34375 Z M 26.078125 -6.34375 "/></g></g></g><g fill="#00d509" fill-opacity="1"><g transform="translate(424.554932, 56.684482)"><g><path d="M 21.875 0 L 11.828125 -14.125 L 11.828125 0 L 4.703125 0 L 4.703125 -39.09375 L 15.59375 -39.09375 C 24.863281 -39.09375 29.5 -34.941406 29.5 -26.640625 C 29.5 -24.785156 29.195312 -22.960938 28.59375 -21.171875 C 28 -19.390625 27.023438 -17.804688 25.671875 -16.421875 C 24.316406 -15.046875 22.582031 -14.097656 20.46875 -13.578125 L 30.5625 0 Z M 14.796875 -17.671875 C 16.390625 -17.671875 17.75 -18.046875 18.875 -18.796875 C 20.007812 -19.554688 20.863281 -20.566406 21.4375 -21.828125 C 22.019531 -23.085938 22.3125 -24.46875 22.3125 -25.96875 C 22.3125 -28.539062 21.71875 -30.4375 20.53125 -31.65625 C 19.351562 -32.875 17.390625 -33.484375 14.640625 -33.484375 L 11.828125 -33.484375 L 11.828125 -17.671875 Z M 14.796875 -17.671875 "/></g></g></g></g></g></svg>